<?xml version="1.0" encoding="UTF-8" standalone="no"?>
<!-- Created with Inkscape (http://www.inkscape.org/) -->

<svg
   width="300"
   height="300"
   viewBox="0 0 79.375 79.375"
   version="1.1"
   id="svg1"
   xmlns:xlink="http://www.w3.org/1999/xlink"
   xmlns="http://www.w3.org/2000/svg"
   xmlns:svg="http://www.w3.org/2000/svg">
  <defs
     id="defs1">
    <linearGradient
       id="linearGradient50">
      <stop
         style="stop-color:#ff0000;stop-opacity:1;"
         offset="0"
         id="stop49" />
      <stop
         style="stop-color:#ffd400;stop-opacity:1;"
         offset="0.94035542"
         id="stop50" />
    </linearGradient>
    <linearGradient
       id="linearGradient42">
      <stop
         style="stop-color:#ffa400;stop-opacity:1;"
         offset="0.07643312"
         id="stop42" />
      <stop
         style="stop-color:#ffd700;stop-opacity:1;"
         offset="0.45859873"
         id="stop43" />
    </linearGradient>
    <linearGradient
       id="linearGradient40">
      <stop
         style="stop-color:#ff0000;stop-opacity:1;"
         offset="0"
         id="stop40" />
      <stop
         style="stop-color:#ffd400;stop-opacity:1;"
         offset="0.60828024"
         id="stop41" />
    </linearGradient>
    <linearGradient
       id="linearGradient38">
      <stop
         style="stop-color:#ff0000;stop-opacity:1;"
         offset="0.12101912"
         id="stop39" />
      <stop
         style="stop-color:#ffd400;stop-opacity:1;"
         offset="0.69108284"
         id="stop38" />
    </linearGradient>
    <linearGradient
       xlink:href="#linearGradient38"
       id="linearGradient39"
       x1="40.488522"
       y1="-59.045597"
       x2="287.7424"
       y2="-59.045597"
       gradientUnits="userSpaceOnUse" />
    <linearGradient
       xlink:href="#linearGradient40"
       id="linearGradient41"
       x1="40.488522"
       y1="-59.045597"
       x2="287.7424"
       y2="-59.045597"
       gradientUnits="userSpaceOnUse" />
    <linearGradient
       xlink:href="#linearGradient42"
       id="linearGradient43"
       x1="40.488522"
       y1="-59.045597"
       x2="287.7424"
       y2="-59.045597"
       gradientUnits="userSpaceOnUse" />
    <linearGradient
       xlink:href="#linearGradient50"
       id="linearGradient49"
       x1="203.8627"
       y1="-6.4467621"
       x2="202.53984"
       y2="-44.23737"
       gradientUnits="userSpaceOnUse" />
  </defs>
  <g
     id="layer1">
    <g
       id="g43">
      <g
         id="g44"
         style="stroke:#000000;stroke-width:0.7;stroke-dasharray:none;stroke-opacity:1">
        <g
           id="g45"
           transform="matrix(0.50059287,0,0,0.50059287,-61.716869,71.588113)">
          <circle
             style="fill:#000000;fill-opacity:1;fill-rule:nonzero;stroke:#000000;stroke-width:0;stroke-dasharray:none;stroke-opacity:1"
             id="path50"
             cx="202.56854"
             cy="-63.725662"
             r="78.223915" />
          <g
             id="g51"
             transform="translate(-0.52115752,1.8901732)">
            <path
               id="rect24"
               style="mix-blend-mode:normal;fill:url(#linearGradient49);fill-opacity:1;fill-rule:nonzero;stroke:#000000;stroke-width:0;stroke-dasharray:none;stroke-opacity:1"
               d="m 200.18487,-4.7099011 c -3.62832,-0.5147261 -7.11388,-3.0299731 -9.17121,-6.0626319 -1.89047,-2.786689 -2.31532,-6.531971 -2.06103,-9.889774 0.28674,-3.786436 2.11138,-7.3164 3.97709,-10.675047 3.65635,-6.582123 9.68731,-18.290657 9.68731,-18.290657 0,0 7.93883,12.900247 10.33076,20.017904 1.14265,3.400195 2.24503,7.038152 1.8415,10.60244 -0.30838,2.723873 -1.61391,5.335107 -3.18311,7.582815 -1.3289,1.9035036 -3.09125,3.5785208 -5.09918,4.7436364 -1.9093,1.1078804 -4.13657,2.2813664 -6.32213,1.9713145 z" />
            <path
               style="fill:url(#linearGradient39);stroke:#000000;stroke-width:0;stroke-dasharray:none;stroke-opacity:1"
               d="m 287.7424,-53.881579 c 0,0 -2.70813,6.440962 -10.67741,15.514786 -7.87375,8.965059 -21.66719,20.691666 -42.31696,26.747275 -21.95286,6.386547 -49.12628,5.3622484 -73.9946,-8.272041 0,-5e-6 -1e-5,-7e-6 -1e-5,-7e-6 -9.44486,-5.289414 -17.43356,-11.47421 -24.14858,-17.622365 -0.22037,-0.201763 -0.43957,-0.403666 -0.65761,-0.605684 -6.92456,-6.307337 -12.81404,-12.591483 -18.36869,-18.010954 -5.66095,-5.419359 -10.70442,-10.234365 -16.00553,-13.728931 -5.540756,-3.603534 -11.042829,-6.464868 -16.569931,-7.396393 -8.141528,-1.709719 -17.838444,0.729204 -24.741126,5.417035 -7.37619,4.943719 -11.826567,12.226863 -14.123397,17.713378 -2.32301,5.549054 -2.733986,9.224199 -2.733986,9.224199 0,0 -1.699495,-3.232948 -2.548019,-9.858584 -0.848604,-6.626259 -0.70501,-17.084593 5.713842,-28.541694 6.152512,-10.87569 18.192979,-22.106681 36.057989,-25.782861 11.594826,-2.20644 23.902148,-1.29279 35.306428,2.69577 10.75148,3.69534 20.37597,9.097676 28.65919,15.229447 8.1956,5.970877 15.22604,12.22187 21.37351,17.788597 0.005,0.0048 0.58323,0.519048 0.58868,0.523891 5.94167,5.297402 11.24086,10.31299 16.43025,14.161043 0,0 1e-5,2e-6 1e-5,2e-6 13.11146,10.067716 29.61008,16.571631 46.07858,18.0744 15.71929,1.480913 30.01537,-1.72406 40.47421,-5.58836 10.31509,-3.811186 16.20316,-7.681949 16.20316,-7.681949 z"
               id="path29"
               transform="matrix(-0.12833456,-0.47895109,0.47895109,-0.12833456,235.15939,13.4768)" />
            <path
               style="fill:url(#linearGradient43);fill-opacity:1;stroke:#000000;stroke-width:0;stroke-dasharray:none;stroke-opacity:1"
               d="m 287.7424,-53.881579 c 0,0 -2.70813,6.440962 -10.67741,15.514786 -7.87375,8.965059 -21.66719,20.691666 -42.31696,26.747275 -21.95286,6.386547 -49.12628,5.3622484 -73.9946,-8.272041 0,-5e-6 -1e-5,-7e-6 -1e-5,-7e-6 -9.44486,-5.289414 -17.43356,-11.47421 -24.14858,-17.622365 -0.22037,-0.201763 -0.43957,-0.403666 -0.65761,-0.605684 -6.92456,-6.307337 -12.81404,-12.591483 -18.36869,-18.010954 -5.66095,-5.419359 -10.70442,-10.234365 -16.00553,-13.728931 -5.540756,-3.603534 -11.042829,-6.464868 -16.569931,-7.396393 -8.141528,-1.709719 -17.838444,0.729204 -24.741126,5.417035 -7.37619,4.943719 -11.826567,12.226863 -14.123397,17.713378 -2.32301,5.549054 -2.733986,9.224199 -2.733986,9.224199 0,0 -1.699495,-3.232948 -2.548019,-9.858584 -0.848604,-6.626259 -0.70501,-17.084593 5.713842,-28.541694 6.152512,-10.87569 18.192979,-22.106681 36.057989,-25.782861 11.594826,-2.20644 23.902148,-1.29279 35.306428,2.69577 10.75148,3.69534 20.37597,9.097676 28.65919,15.229447 8.1956,5.970877 15.22604,12.22187 21.37351,17.788597 0.005,0.0048 0.58323,0.519048 0.58868,0.523891 5.94167,5.297402 11.24086,10.31299 16.43025,14.161043 0,0 1e-5,2e-6 1e-5,2e-6 13.11146,10.067716 29.61008,16.571631 46.07858,18.0744 15.71929,1.480913 30.01537,-1.72406 40.47421,-5.58836 10.31509,-3.811186 16.20316,-7.681949 16.20316,-7.681949 z"
               id="path34"
               transform="matrix(0.1049444,-0.16727225,-0.18176902,-0.09657468,186.83335,-63.07251)" />
            <path
               style="fill:url(#linearGradient41);stroke:#000000;stroke-width:0;stroke-dasharray:none;stroke-opacity:1"
               d="m 287.7424,-53.881579 c 0,0 -2.70813,6.440962 -10.67741,15.514786 -7.87375,8.965059 -21.66719,20.691666 -42.31696,26.747275 -21.95286,6.386547 -49.12628,5.3622484 -73.9946,-8.272041 0,-5e-6 -1e-5,-7e-6 -1e-5,-7e-6 -9.44486,-5.289414 -17.43356,-11.47421 -24.14858,-17.622365 -0.22037,-0.201763 -0.43957,-0.403666 -0.65761,-0.605684 -6.92456,-6.307337 -12.81404,-12.591483 -18.36869,-18.010954 -5.66095,-5.419359 -10.70442,-10.234365 -16.00553,-13.728931 -5.540756,-3.603534 -11.042829,-6.464868 -16.569931,-7.396393 -8.141528,-1.709719 -17.838444,0.729204 -24.741126,5.417035 -7.37619,4.943719 -11.826567,12.226863 -14.123397,17.713378 -2.32301,5.549054 -2.733986,9.224199 -2.733986,9.224199 0,0 -1.699495,-3.232948 -2.548019,-9.858584 -0.848604,-6.626259 -0.70501,-17.084593 5.713842,-28.541694 6.152512,-10.87569 18.192979,-22.106681 36.057989,-25.782861 11.594826,-2.20644 23.902148,-1.29279 35.306428,2.69577 10.75148,3.69534 20.37597,9.097676 28.65919,15.229447 8.1956,5.970877 15.22604,12.22187 21.37351,17.788597 0.005,0.0048 0.58323,0.519048 0.58868,0.523891 5.94167,5.297402 11.24086,10.31299 16.43025,14.161043 0,0 1e-5,2e-6 1e-5,2e-6 13.11146,10.067716 29.61008,16.571631 46.07858,18.0744 15.71929,1.480913 30.01537,-1.72406 40.47421,-5.58836 10.31509,-3.811186 16.20316,-7.681949 16.20316,-7.681949 z"
               id="path30"
               transform="matrix(0.14635181,-0.54619238,-0.54619238,-0.14635181,161.72814,15.216393)" />
          </g>
        </g>
      </g>
    </g>
  </g>
</svg>
